Coordinates
version=1
nRows=14
nColumns=24
inDegrees=yes
Units are S.I. units (second, meters, Newtons, ...)
Angles are in degrees.
endheader
time	pelvis_tilt	pelvis_list	pelvis_rotation	pelvis_tx	pelvis_ty	pelvis_tz	hip_flexion_r	hip_adduction_r	hip_rotation_r	knee_angle_r	ankle_angle_r	subtalar_angle_r	mtp_angle_r	hip_flexion_l	hip_adduction_l	hip_rotation_l	knee_angle_l	ankle_angle_l	subtalar_angle_l	mtp_angle_l	lumbar_extension	lumbar_bending	lumbar_rotation	
0.02000000000000	-5.85811211000000	0.42066408000000	2.98539544000000	-0.09162571000000	0.89839300000000	-0.03939657000000	53.89178378000000	-6.59516685000000	-7.86558177000000	-39.46413392000000	21.23892592000000	-0.00000019000000	0.00000000000000	-12.08611696000000	0.53469101000000	0.89276864000000	1.26091938000000	9.89423127000000	0.00000034000000	0.00000000000000	-15.72810152000000	-2.30162973000000	-3.78616500000000	
0.03000000000000	-5.72546550000000	0.40139973000000	3.62376402000000	-0.08961081000000	0.89516296000000	-0.03888081000000	53.86086885000000	-6.45685708000000	-7.12653913000000	-40.99056883000000	18.74760088000000	-0.00000005000000	0.00000000000000	-12.58151869000000	0.21986583000000	0.95785669000000	0.13356509000000	10.75390341000000	0.00000038000000	0.00000000000000	-15.66422857000000	-2.01442302000000	-4.14876674000000	
0.04000000000000	-5.57238010000000	0.35121643000000	4.30300354000000	-0.08750330000000	0.89218530000000	-0.03854686000000	53.70265563000000	-6.38440649000000	-6.55481647000000	-42.68264172000000	17.32573747000000	-0.00000010000000	0.00000000000000	-12.84869182000000	-0.11979325000000	1.30913100000000	-1.41875933000000	11.35475073000000	0.00000035000000	0.00000000000000	-15.58258830000000	-1.62702783000000	-4.58400957000000	
0.05000000000000	-5.47356165000000	0.36573643000000	4.93687170000000	-0.08563505000000	0.88975576000000	-0.03802247000000	53.66672754000000	-6.45614879000000	-6.13269611000000	-44.55428250000000	16.73907852000000	-0.00000001000000	0.00000000000000	-12.56787225000000	-0.38922801000000	2.05449126000000	-4.21794619000000	13.22446700000000	0.00000040000000	0.00000000000000	-15.53002109000000	-1.34131112000000	-4.92385318000000	
0.06000000000000	-5.35399280000000	0.35555691000000	5.58527515000000	-0.08377675000000	0.88810873000000	-0.03752549000000	53.78292933000000	-6.59103584000000	-5.78302509000000	-46.84315357000000	17.93764666000000	0.00000001000000	0.00000000000000	-12.17480162000000	-0.64067261000000	2.69869393000000	-6.91725093000000	14.69229533000000	0.00000041000000	0.00000000000000	-15.52854386000000	-1.00026919000000	-5.24511206000000	
0.07000000000000	-5.21869300000000	0.27194588000000	6.19097479000000	-0.08196918000000	0.88728282000000	-0.03692219000000	53.78457498000000	-6.61192560000000	-5.48718407000000	-48.98835908000000	19.81246575000000	0.00000003000000	0.00000000000000	-11.61428601000000	-0.95301334000000	3.29082066000000	-9.79734669000000	16.13503285000000	0.00000044000000	0.00000000000000	-15.57950746000000	-0.57427746000000	-5.52001253000000	
0.08000000000000	-5.10050073000000	0.10567023000000	6.70968015000000	-0.08013005000000	0.88733466000000	-0.03610996000000	53.43639983000000	-6.48849578000000	-5.37174938000000	-50.49461151000000	21.26220155000000	0.00000002000000	0.00000000000000	-10.62616041000000	-1.26807370000000	3.71469142000000	-13.73927139000000	18.57669814000000	0.00000039000000	0.00000000000000	-15.65128042000000	-0.08676504000000	-5.67817060000000	
0.09000000000000	-5.06548875000000	-0.04103646000000	7.10462709000000	-0.07859857000000	0.88773841000000	-0.03507179000000	52.90106391000000	-6.35026305000000	-5.41249603000000	-51.43512521000000	22.05918474000000	0.00000001000000	0.00000000000000	-9.27536835000000	-1.52332967000000	3.86749725000000	-18.00271958000000	20.85618453000000	0.00000048000000	0.00000000000000	-15.64959122000000	0.34306649000000	-5.83930436000000	
0.10000000000000	-5.05980769000000	-0.17062746000000	7.34694954000000	-0.07713591000000	0.88858861000000	-0.03382331000000	52.20094653000000	-6.18928526000000	-5.57100210000000	-52.01261780000000	22.55827390000000	0.00000002000000	0.00000000000000	-7.72986989000000	-1.74611539000000	3.82269863000000	-22.38452253000000	22.86643435000000	0.00000042000000	0.00000000000000	-15.60704793000000	0.72104414000000	-5.91585771000000	
0.11000000000000	-5.10360535000000	-0.23774288000000	7.46204733000000	-0.07585202000000	0.88989648000000	-0.03233362000000	51.38468508000000	-6.06959969000000	-5.82450877000000	-52.25829833000000	22.79109658000000	0.00000010000000	0.00000000000000	-5.97681079000000	-1.90443071000000	3.59884736000000	-26.91412119000000	24.50362543000000	0.00000039000000	0.00000000000000	-15.55941848000000	0.97865540000000	-5.85984433000000	
0.12000000000000	-5.13751765000000	-0.22373251000000	7.45205174000000	-0.07465733000000	0.89168558000000	-0.03081402000000	50.45358382000000	-6.03298247000000	-6.13752753000000	-52.34895076000000	23.00582502000000	0.00000012000000	0.00000000000000	-4.28041545000000	-1.96665346000000	3.36922285000000	-31.05109281000000	24.71883262000000	0.00000040000000	0.00000000000000	-15.53036030000000	1.12016744000000	-5.68533372000000	
0.13000000000000	-5.20837246000000	-0.11815937000000	7.32439543000000	-0.07391458000000	0.89362870000000	-0.02917529000000	49.53953839000000	-6.05510037000000	-6.41563963000000	-52.37264232000000	23.35578250000000	0.00000018000000	0.00000000000000	-2.44994985000000	-1.87362371000000	3.11795815000000	-35.19110782000000	24.09959442000000	0.00000037000000	0.00000000000000	-15.49169746000000	1.11528312000000	-5.43273936000000	
0.14000000000000	-5.24408929000000	-0.00739518000000	7.10340251000000	-0.07332092000000	0.89594906000000	-0.02736861000000	48.47876256000000	-6.04046832000000	-6.72271033000000	-52.22642866000000	23.63914811000000	0.00000023000000	0.00000000000000	-0.63639575000000	-1.79017845000000	2.61277930000000	-38.78555820000000	20.67961161000000	0.00000027000000	0.00000000000000	-15.49474015000000	1.04713184000000	-5.07405189000000	
0.15000000000000	-5.33944286000000	0.15582270000000	6.75045605000000	-0.07308757000000	0.89818173000000	-0.02535752000000	47.52417992000000	-5.96242124000000	-6.85754586000000	-52.11849922000000	24.22710025000000	0.00000032000000	0.00000000000000	1.28938199000000	-1.52259486000000	2.33838758000000	-42.75202777000000	18.14539197000000	0.00000033000000	0.00000000000000	-15.44221383000000	0.84236310000000	-4.57334702000000	
